<mxfile host="app.diagrams.net" agent="Mozilla/5.0 (Windows NT 10.0; Win64; x64) AppleWebKit/537.36 (KHTML, like Gecko) Chrome/140.0.0.0 Safari/537.36 Edg/140.0.0.0" version="28.2.4">
  <diagram name="1 oldal" id="Cxc_hxnu3QabkgUKn_ec">
    <mxGraphModel dx="2009" dy="1824" grid="1" gridSize="10" guides="1" tooltips="1" connect="1" arrows="1" fold="1" page="1" pageScale="1" pageWidth="827" pageHeight="1169" math="0" shadow="0">
      <root>
        <mxCell id="0" />
        <mxCell id="1" parent="0" />
        <mxCell id="ZdFYsTKnEJbk1vIwcUh--1" value="XY_orarend" style="rounded=0;whiteSpace=wrap;html=1;" parent="1" vertex="1">
          <mxGeometry x="120" y="-100" width="120" height="60" as="geometry" />
        </mxCell>
        <mxCell id="ZdFYsTKnEJbk1vIwcUh--2" value="ora" style="rounded=0;whiteSpace=wrap;html=1;" parent="1" vertex="1">
          <mxGeometry x="120" y="180" width="120" height="60" as="geometry" />
        </mxCell>
        <mxCell id="ZdFYsTKnEJbk1vIwcUh--3" value="&lt;u&gt;Id&lt;/u&gt;" style="ellipse;whiteSpace=wrap;html=1;" parent="1" vertex="1">
          <mxGeometry x="-30" y="170" width="120" height="80" as="geometry" />
        </mxCell>
        <mxCell id="ZdFYsTKnEJbk1vIwcUh--4" value="TÃ­pus" style="ellipse;whiteSpace=wrap;html=1;" parent="1" vertex="1">
          <mxGeometry x="270" y="170" width="120" height="80" as="geometry" />
        </mxCell>
        <mxCell id="ZdFYsTKnEJbk1vIwcUh--5" value="" style="endArrow=none;html=1;rounded=0;exitX=1;exitY=0.5;exitDx=0;exitDy=0;entryX=0;entryY=0.5;entryDx=0;entryDy=0;" parent="1" source="ZdFYsTKnEJbk1vIwcUh--2" target="ZdFYsTKnEJbk1vIwcUh--4" edge="1">
          <mxGeometry width="50" height="50" relative="1" as="geometry">
            <mxPoint x="390" y="240" as="sourcePoint" />
            <mxPoint x="440" y="190" as="targetPoint" />
          </mxGeometry>
        </mxCell>
        <mxCell id="ZdFYsTKnEJbk1vIwcUh--6" value="" style="endArrow=none;html=1;rounded=0;exitX=0;exitY=0.5;exitDx=0;exitDy=0;entryX=1;entryY=0.5;entryDx=0;entryDy=0;" parent="1" source="ZdFYsTKnEJbk1vIwcUh--2" target="ZdFYsTKnEJbk1vIwcUh--3" edge="1">
          <mxGeometry width="50" height="50" relative="1" as="geometry">
            <mxPoint x="390" y="240" as="sourcePoint" />
            <mxPoint x="440" y="190" as="targetPoint" />
          </mxGeometry>
        </mxCell>
        <mxCell id="ZdFYsTKnEJbk1vIwcUh--8" value="1" style="text;html=1;whiteSpace=wrap;overflow=hidden;rounded=0;" parent="1" vertex="1">
          <mxGeometry x="190" y="-39" width="20" height="30" as="geometry" />
        </mxCell>
        <mxCell id="ZdFYsTKnEJbk1vIwcUh--9" value="N" style="text;html=1;whiteSpace=wrap;overflow=hidden;rounded=0;" parent="1" vertex="1">
          <mxGeometry x="190" y="149" width="20" height="30" as="geometry" />
        </mxCell>
        <mxCell id="ZdFYsTKnEJbk1vIwcUh--15" value="nap" style="ellipse;whiteSpace=wrap;html=1;" parent="1" vertex="1">
          <mxGeometry x="-20" y="520" width="120" height="80" as="geometry" />
        </mxCell>
        <mxCell id="ZdFYsTKnEJbk1vIwcUh--16" value="tol" style="ellipse;whiteSpace=wrap;html=1;" parent="1" vertex="1">
          <mxGeometry x="120" y="520" width="120" height="80" as="geometry" />
        </mxCell>
        <mxCell id="ZdFYsTKnEJbk1vIwcUh--17" value="ig" style="ellipse;whiteSpace=wrap;html=1;" parent="1" vertex="1">
          <mxGeometry x="260" y="520" width="120" height="80" as="geometry" />
        </mxCell>
        <mxCell id="ZdFYsTKnEJbk1vIwcUh--18" value="" style="endArrow=none;html=1;rounded=0;entryX=0.5;entryY=1;entryDx=0;entryDy=0;exitX=0.5;exitY=0;exitDx=0;exitDy=0;" parent="1" target="ZdFYsTKnEJbk1vIwcUh--2" edge="1">
          <mxGeometry width="50" height="50" relative="1" as="geometry">
            <mxPoint x="180" y="339.9999999999999" as="sourcePoint" />
            <mxPoint x="260" y="280" as="targetPoint" />
          </mxGeometry>
        </mxCell>
        <mxCell id="ZdFYsTKnEJbk1vIwcUh--19" value="" style="endArrow=none;html=1;rounded=0;entryX=0.5;entryY=1;entryDx=0;entryDy=0;exitX=0.5;exitY=0;exitDx=0;exitDy=0;" parent="1" target="ZdFYsTKnEJbk1vIwcUh--2" edge="1">
          <mxGeometry width="50" height="50" relative="1" as="geometry">
            <mxPoint x="320" y="339.9999999999999" as="sourcePoint" />
            <mxPoint x="220" y="270" as="targetPoint" />
          </mxGeometry>
        </mxCell>
        <mxCell id="ZdFYsTKnEJbk1vIwcUh--20" value="" style="endArrow=none;html=1;rounded=0;entryX=0.5;entryY=1;entryDx=0;entryDy=0;exitX=0.5;exitY=0;exitDx=0;exitDy=0;" parent="1" target="ZdFYsTKnEJbk1vIwcUh--2" edge="1">
          <mxGeometry width="50" height="50" relative="1" as="geometry">
            <mxPoint x="460" y="339.9999999999999" as="sourcePoint" />
            <mxPoint x="370" y="290" as="targetPoint" />
          </mxGeometry>
        </mxCell>
        <mxCell id="ZdFYsTKnEJbk1vIwcUh--21" value="" style="endArrow=none;html=1;rounded=0;entryX=0.5;entryY=1;entryDx=0;entryDy=0;exitX=0.5;exitY=0;exitDx=0;exitDy=0;" parent="1" target="ZdFYsTKnEJbk1vIwcUh--2" edge="1">
          <mxGeometry width="50" height="50" relative="1" as="geometry">
            <mxPoint x="40" y="339.9999999999999" as="sourcePoint" />
            <mxPoint x="440" y="270" as="targetPoint" />
          </mxGeometry>
        </mxCell>
        <mxCell id="ZdFYsTKnEJbk1vIwcUh--22" value="" style="endArrow=none;html=1;rounded=0;entryX=0.5;entryY=1;entryDx=0;entryDy=0;exitX=0.5;exitY=0;exitDx=0;exitDy=0;" parent="1" target="ZdFYsTKnEJbk1vIwcUh--2" edge="1">
          <mxGeometry width="50" height="50" relative="1" as="geometry">
            <mxPoint x="-100" y="339.9999999999999" as="sourcePoint" />
            <mxPoint x="150" y="310" as="targetPoint" />
          </mxGeometry>
        </mxCell>
        <mxCell id="ZdFYsTKnEJbk1vIwcUh--32" value="" style="endArrow=none;html=1;rounded=0;exitX=0.5;exitY=1;exitDx=0;exitDy=0;entryX=0.5;entryY=0;entryDx=0;entryDy=0;" parent="1" source="OjWk2u3dfDYEnAF03pPY-3" target="ZdFYsTKnEJbk1vIwcUh--16" edge="1">
          <mxGeometry width="50" height="50" relative="1" as="geometry">
            <mxPoint x="180" y="399.9999999999999" as="sourcePoint" />
            <mxPoint x="260" y="310" as="targetPoint" />
          </mxGeometry>
        </mxCell>
        <mxCell id="ZdFYsTKnEJbk1vIwcUh--33" value="" style="endArrow=none;html=1;rounded=0;exitX=0.5;exitY=1;exitDx=0;exitDy=0;entryX=0.5;entryY=0;entryDx=0;entryDy=0;" parent="1" source="OjWk2u3dfDYEnAF03pPY-3" target="ZdFYsTKnEJbk1vIwcUh--15" edge="1">
          <mxGeometry width="50" height="50" relative="1" as="geometry">
            <mxPoint x="180" y="399.9999999999999" as="sourcePoint" />
            <mxPoint x="170" y="485" as="targetPoint" />
          </mxGeometry>
        </mxCell>
        <mxCell id="ZdFYsTKnEJbk1vIwcUh--34" value="" style="endArrow=none;html=1;rounded=0;exitX=0.5;exitY=1;exitDx=0;exitDy=0;entryX=0.5;entryY=0;entryDx=0;entryDy=0;" parent="1" source="OjWk2u3dfDYEnAF03pPY-3" target="ZdFYsTKnEJbk1vIwcUh--17" edge="1">
          <mxGeometry width="50" height="50" relative="1" as="geometry">
            <mxPoint x="180" y="399.9999999999999" as="sourcePoint" />
            <mxPoint x="130" y="545" as="targetPoint" />
          </mxGeometry>
        </mxCell>
        <mxCell id="OjWk2u3dfDYEnAF03pPY-1" value="&lt;span&gt;targy&lt;/span&gt;" style="ellipse;whiteSpace=wrap;html=1;strokeColor=default;fontStyle=0" vertex="1" parent="1">
          <mxGeometry x="-160" y="340" width="120" height="80" as="geometry" />
        </mxCell>
        <mxCell id="OjWk2u3dfDYEnAF03pPY-2" value="&lt;span&gt;helyszin&lt;/span&gt;" style="ellipse;whiteSpace=wrap;html=1;strokeColor=default;fontStyle=0" vertex="1" parent="1">
          <mxGeometry x="-20" y="340" width="120" height="80" as="geometry" />
        </mxCell>
        <mxCell id="OjWk2u3dfDYEnAF03pPY-3" value="&lt;span&gt;idopont&lt;/span&gt;" style="ellipse;whiteSpace=wrap;html=1;strokeColor=default;fontStyle=0" vertex="1" parent="1">
          <mxGeometry x="120" y="340" width="120" height="80" as="geometry" />
        </mxCell>
        <mxCell id="OjWk2u3dfDYEnAF03pPY-4" value="&lt;span&gt;oktato&lt;/span&gt;" style="ellipse;whiteSpace=wrap;html=1;strokeColor=default;fontStyle=0" vertex="1" parent="1">
          <mxGeometry x="260" y="340" width="120" height="80" as="geometry" />
        </mxCell>
        <mxCell id="OjWk2u3dfDYEnAF03pPY-5" value="&lt;span&gt;szak&lt;/span&gt;" style="ellipse;whiteSpace=wrap;html=1;strokeColor=default;fontStyle=0" vertex="1" parent="1">
          <mxGeometry x="400" y="340" width="120" height="80" as="geometry" />
        </mxCell>
        <mxCell id="OjWk2u3dfDYEnAF03pPY-6" value="" style="rhombus;whiteSpace=wrap;html=1;" vertex="1" parent="1">
          <mxGeometry x="140" y="30" width="80" height="80" as="geometry" />
        </mxCell>
        <mxCell id="OjWk2u3dfDYEnAF03pPY-7" value="" style="endArrow=none;html=1;rounded=0;entryX=0.5;entryY=1;entryDx=0;entryDy=0;exitX=0.5;exitY=0;exitDx=0;exitDy=0;" edge="1" parent="1" source="OjWk2u3dfDYEnAF03pPY-6" target="ZdFYsTKnEJbk1vIwcUh--1">
          <mxGeometry width="50" height="50" relative="1" as="geometry">
            <mxPoint x="80" y="70" as="sourcePoint" />
            <mxPoint x="130" y="20" as="targetPoint" />
          </mxGeometry>
        </mxCell>
        <mxCell id="OjWk2u3dfDYEnAF03pPY-8" value="" style="endArrow=none;html=1;rounded=0;entryX=0.5;entryY=1;entryDx=0;entryDy=0;exitX=0.5;exitY=0;exitDx=0;exitDy=0;" edge="1" parent="1">
          <mxGeometry width="50" height="50" relative="1" as="geometry">
            <mxPoint x="179.31" y="180" as="sourcePoint" />
            <mxPoint x="179.31" y="110" as="targetPoint" />
          </mxGeometry>
        </mxCell>
      </root>
    </mxGraphModel>
  </diagram>
</mxfile>
